<svg version="1.1" x="0px" y="0px" width="249.99995422363" height="117.69429016113" xmlns="http://www.w3.org/2000/svg" xmlns:xlink="http://www.w3.org/1999/xlink" xmlns:a="http://ns.adobe.com/AdobeSVGViewerExtensions/3.0/" xml:space="preserve"><g transform="translate(0 0)"><g transform="translate(0 0) scale(3.8932911528364 3.8932969302709) rotate(0 32.106506347656 15.114990234375)"><linearGradient id="SVGID_1" x1="0%" y1="0%" x2="100%" y2="0%" gradientTransform="rotate(90)"><stop offset="0%" stop-color="#8b5cf6" stop-opacity="1"></stop><stop offset="100%" stop-color="#D946EF" stop-opacity="1"></stop></linearGradient><path d="M48.037 24.742a4.51 4.51 0 0 0 1.063.152c4.088 0 7.593-2.522 9.053-6.09-.02-.032-.022-.076.01-.147.361-.815.609-2.496-.406-2.764-1.017-.268-1.485.486-1.485.486l-.017-.003c-.53 1.587-2.013 2.741-3.779 2.741a4.001 4.001 0 0 1 0-8.002c1.767 0 3.249 1.152 3.779 2.741l.017-.003s.469.752 1.485.485.768-1.948.406-2.764c-.032-.072-.029-.115-.01-.147-1.46-3.568-4.965-6.091-9.053-6.091-2.904 0-7.676 3.78-11.513 7.678l-3.662-3.886C37.827 5.171 43.916 0 49.1 0c8.335 0 15.113 6.78 15.113 15.115 0 1.613-.258 3.164-.729 4.623-.086.232-.176.457-.27.674 0 0-1.379 3.553-3.801 5.084s-8.078 1.547-8.25 1.547-2.844-1.188-2.844-1.188l-.578-.563.296-.55z" fill="url(#SVGID_1)"></path><linearGradient id="SVGID_2" x1="0%" y1="0%" x2="100%" y2="0%" gradientTransform="rotate(90)"><stop offset="0%" stop-color="#d946ef" stop-opacity="1"></stop><stop offset="100%" stop-color="#6366f1" stop-opacity="1"></stop></linearGradient><path d="M15.883 5.054c-.063-.063-2.5-1.396-2.5-1.396s-3.188-.521-3.25-.521-1.812.104-4.083 1.125S2.362 7.2 1.904 7.887s-.99 2.1-.99 2.1A15.068 15.068 0 0 0 0 15.117C0 23.451 6.781 30.23 15.114 30.23c5.163 0 11.224-5.129 15.126-9.077l-3.583-3.966c-3.842 3.909-8.631 7.709-11.542 7.709-4.308 0-7.967-2.805-9.267-6.682-.25-.869-.294-2.096.563-2.321 1.016-.268 1.482.486 1.482.486l.019-.003c.529 1.587 2.011 2.741 3.777 2.741a4.001 4.001 0 0 0 0-8.002 3.982 3.982 0 0 0-3.777 2.741l-.019-.003s-.466.752-1.482.485c-.855-.225-.813-1.447-.563-2.316 1.299-3.879 4.959-6.685 9.268-6.685.531 0 1.125.129 1.762.359-.002-.001-.932-.58-.995-.642z" fill="url(#SVGID_2)"></path><path d="M48.037 24.742c-3.336-.825-8.268-5.1-11.875-9.024C36.16 15.716 23.029.001 15.114.001 8.582.001 3.022 4.173.914 9.987c3.348-8.458 11.905-6.03 15.961-4.292.684.247 1.417.612 2.187 1.07l.009.006v.001c2.438 1.459 5.19 3.843 7.58 6.271h.002l.014.016c.677.689 14.516 17.17 22.432 17.17 6.721 0 12.426-4.413 14.385-10.491-3.064 8.303-10.886 6.762-15.447 5.004z" fill="#d946ef"></path></g></g></svg>